# xmcd
#
# Track frame offsets: 
#        150
#        17026
#        32689
#        52955
#        70941
#        85874
#        105816
#        123376
#        145623
#        174020
#        190107
#        210071
#        227648
#        241413
#        264158
#        282875
#        305126
#        317526
#        329980
#        341113
#
# Disc length: 4783 seconds
#
# Revision: 0
# Processed by: cddbd v1.5.2PL0 Copyright (c) Steve Scherf et al.
# Submitted via: ExactAudioCopy v1.3
#
DISCID=0a12ad14
DTITLE=ЧайФ - Лучшее CD 1
DYEAR=2009
DGENRE=Blues
TTITLE0=Рок-Н-Ролл Этой Ночи
TTITLE1=Не Дай Мне Повод
TTITLE2=17 Лет
TTITLE3=Не Доводи До Передела
TTITLE4=Аргентина-Ямайка 5:0
TTITLE5=Никто Не Услышит (Ой-Йо)
TTITLE6=Не Спеши
TTITLE7=Не Со Мной
TTITLE8=Поплчь О Нем
TTITLE9=Я Тебя Не Нашел (Уже)
TTITLE10=В Ее Глазах
TTITLE11=Камнепад
TTITLE12=Белая Ворона
TTITLE13=Кончается Век
TTITLE14=За Полшага
TTITLE15=Сальто Назад
TTITLE16=Кто-То Хитрый
TTITLE17=Любовь Пришла
TTITLE18=Пиво
TTITLE19=Rock-N-Roll
EXTD=
EXTT0=
EXTT1=
EXTT2=
EXTT3=
EXTT4=
EXTT5=
EXTT6=
EXTT7=
EXTT8=
EXTT9=
EXTT10=
EXTT11=
EXTT12=
EXTT13=
EXTT14=
EXTT15=
EXTT16=
EXTT17=
EXTT18=
EXTT19=
PLAYORDER=
